<?xml version="1.0" encoding="UTF-8" standalone="no"?>
<svg viewBox="0 0 256 256" xmlns="http://www.w3.org/2000/svg" xml:space="preserve" style="fill-rule:evenodd;clip-rule:evenodd;stroke-linejoin:round;stroke-miterlimit:2">
<defs id="defs8" />
	<desc id="desc1">Traced by Dogo314</desc>
	<g transform="translate(-276,-306)" id="g8">
		<path style="fill:none" d="M 276,306 H 532 V 562 H 276 Z" id="path1" />
		<clipPath id="a">
			<path d="M 276,306 H 532 V 562 H 276 Z" id="path2" />
		</clipPath>
		<g clip-path="url(#a)" id="g7">
			<path style="fill:#011419" transform="translate(0,306)" d="M 276,0 H 532 V 256 H 276 Z" id="path3" />
			<path d="m 388,1894 -4,4 h -21.55882 v -16 H 384 l 4,4 h 28 v 8 z" style="fill:#53bcda" transform="translate(0,-1440)" id="path4" />
			<path d="M 276,15 V 0 H 532 V 15 Z M 518,0.82 H 290 v 13.36 h 228 z" style="fill:#5abeda" transform="matrix(1,0,0,17.06667,0,306)" id="path7" />
			<path d="m 416,1906 16,16 h 32 v 24 H 344 c 10e-4,-13.3333 -4.4e-4,-26.6667 -0.003,-40 z m 48,48 c 0,6.623 -5.377,12 -12,12 -6.623,0 -12,-5.377 -12,-12 z m -96,0 c 0,6.623 -5.377,12 -12,12 -6.623,0 -12,-5.377 -12,-12 z" style="fill:#53bcda" transform="translate(0,-1440)" id="path8" />
			<path d="m 389.93558,387.23297 h 11.96779 v 35.90337 H 366 v -35.90337 h 11.96779 v 11.9678 h 11.96779 z m 41.88726,0 h 11.9678 v 35.90337 h -35.90337 v -35.90337 h 11.96778 v 11.9678 h 11.96779 z m -20.94363,-41.88725 h 11.9678 v 35.90337 h -35.90337 v -35.90337 h 11.96778 v 11.96778 h 11.96779 z" style="clip-rule:evenodd;fill:#ffffee;fill-rule:evenodd;stroke-width:0.747987;stroke-linejoin:round;stroke-miterlimit:2" id="path2-4" />
		</g>
	</g>
</svg>
